<?xml version="1.0" encoding="UTF-8" standalone="no"?>
<!DOCTYPE svg PUBLIC "-//W3C//DTD SVG 1.1//EN" "http://www.w3.org/Graphics/SVG/1.1/DTD/svg11.dtd">
<svg width="100%" height="100%" viewBox="0 0 200 150" version="1.1" xmlns="http://www.w3.org/2000/svg" xmlns:xlink="http://www.w3.org/1999/xlink" xml:space="preserve" xmlns:serif="http://www.serif.com/" style="fill-rule:evenodd;clip-rule:evenodd;stroke-linecap:round;stroke-linejoin:round;stroke-miterlimit:1.5;">
    <g transform="matrix(1.06818,0,0,1.06818,-12.9009,-14.7312)">
        <g id="Layer8">
            <path d="M34.413,41.971C37.226,39.235 56.068,33.946 81.135,34.637C85.864,34.767 74.271,47.058 74.271,47.058L64.258,51.051C64.258,51.051 31.6,44.707 34.413,41.971Z" style="fill:rgb(128,90,89);stroke:rgb(253,255,255);stroke-width:20.68px;"/>
            <path d="M82.924,34.041C70.134,34.717 71.262,48.002 71.262,48.002C71.262,48.002 117.505,47.109 115.987,44.515C109.544,33.506 90.39,33.646 82.924,34.041Z" style="fill:rgb(153,87,62);stroke:rgb(253,255,255);stroke-width:20.68px;"/>
            <path d="M77.873,35.411C98.495,34.059 113.829,40.892 114.551,44.359" style="fill:none;stroke:rgb(253,255,255);stroke-opacity:0.12;stroke-width:20.68px;"/>
            <g id="Layer11">
                <g opacity="0.6">
                    <g transform="matrix(1.10231,-0.014979,-0.014979,1.00219,-5.81888,-0.461159)">
                        <path d="M73.601,38.519L38.186,44.003" style="fill:none;stroke:rgb(253,255,255);stroke-width:19.92px;"/>
                    </g>
                    <g transform="matrix(0.847824,0.024224,0.0240399,0.996182,8.71552,0.852192)">
                        <path d="M73.601,38.519L38.186,44.003" style="fill:none;stroke:rgb(253,255,255);stroke-width:21.79px;"/>
                    </g>
                    <g transform="matrix(0.551033,0.0699443,0.0695455,0.989172,27.1016,1.67076)">
                        <path d="M73.601,38.519L38.186,44.003" style="fill:none;stroke:rgb(253,255,255);stroke-width:23.83px;"/>
                    </g>
                </g>
                <path d="M80.3,33.839C73.987,36.962 69.99,41.893 71.038,48.1" style="fill:none;stroke:rgb(253,255,255);stroke-width:20.68px;"/>
            </g>
            <path d="M117.398,45.764C103.31,23.673 36.315,38.056 33.032,42.04C31.797,43.538 62.932,51.284 64.666,51.094" style="fill:none;stroke:rgb(253,255,255);stroke-width:20.68px;"/>
        </g>
        <g id="Layer4">
            <path d="M160.222,37.007C161.062,35.961 168.25,36.645 170.23,38.443C173.098,41.047 171.41,49.588 171.41,49.588C171.41,49.588 167.648,50.758 167.309,49.591C165.985,45.03 163.576,44.894 163.009,43.145C161.527,38.567 159.23,38.243 160.222,37.007Z" style="fill:rgb(37,20,37);stroke:rgb(253,255,255);stroke-width:20.68px;stroke-linecap:butt;stroke-miterlimit:2;"/>
            <ellipse cx="166.068" cy="40.314" rx="1.241" ry="1.166" style="fill:rgb(253,250,231);stroke:rgb(253,255,255);stroke-opacity:0;stroke-width:20.68px;"/>
            <path d="M182.148,46.293C181.53,46.138 176.175,46.482 173.842,45.472" style="fill:rgb(37,20,37);fill-opacity:0;"/>
            <path d="M177.327,35.736C178.07,35.779 184.144,36.131 184.665,36.262C190.201,37.651 193.567,43.273 192.178,48.809C190.909,53.869 186.103,57.117 181.058,56.578C179.61,56.515 172.48,56.151 169.736,54.964C164.497,52.698 162.084,46.605 164.35,41.367C166.527,36.334 172.237,33.909 177.327,35.736Z" style="fill:rgb(253,255,255);"/>
        </g>
        <g id="Layer2">
            <path d="M51.511,73.384C48.922,78.47 42.69,80.498 37.603,77.909C32.517,75.32 30.489,69.088 33.078,64.001C38.481,53.387 54.905,42.721 73.223,37.004C91.502,31.3 111.121,30.675 121.774,36.342C126.814,39.023 128.729,45.29 126.048,50.329C123.368,55.368 117.101,57.283 112.062,54.603C109.71,53.352 106.526,52.957 102.958,52.882C95.834,52.732 87.44,54.234 79.384,56.748C71.333,59.261 63.602,62.789 57.872,66.936C55.035,68.99 52.687,71.073 51.511,73.384Z" style="fill:rgb(253,255,255);"/>
            <path d="M118.749,35.293C122.576,33.441 132.768,29.51 151.008,29.074C153.967,27.821 160.837,25.364 167.115,26.419C174.488,27.658 178.178,31.364 179.311,32.722C180.782,33.261 184.184,34.551 186.187,35.631L189.972,38.469L192.541,42.706L193.13,47.377L191.712,51.932L190.349,53.845L188.359,55.653L185.862,57.089L183.013,58.102C180.721,58.743 177.464,59.213 174.649,59.733C172.449,60.14 170.597,60.256 168.144,60.502C167.724,60.544 158.946,60.369 150.378,61.188C146.817,61.529 143.238,61.79 141.071,62.755C140.622,63.56 139.296,65.948 138.55,67.409C136.823,70.791 134.824,74.021 132.403,76.356C128.295,80.318 121.743,80.2 117.78,76.092C113.818,71.984 113.936,65.432 118.044,61.47C119.379,60.182 120.3,58.288 121.167,56.374L118.93,56.553L116.129,56.205L111.669,54.383C106.751,51.486 105.111,45.141 108.008,40.223C110.264,36.393 114.613,34.551 118.749,35.293Z" style="fill:rgb(253,255,255);"/>
            <path d="M52.201,65.876C52.931,66.381 53.891,67.024 54.649,67.459C58.079,69.423 61.898,71.079 63.279,71.596C69.951,74.099 79.575,72.943 83.732,72.66L89.326,72.883C94.863,74.268 98.235,79.887 96.85,85.424C95.621,90.342 91.051,93.551 86.165,93.238C84.207,93.39 65.933,94.682 56.014,90.962C52.552,89.663 39.143,83.198 35.027,78.115L32.99,74.871L31.982,71.637L31.877,68.207L32.848,64.629C35.17,59.416 41.289,57.069 46.503,59.391C49.367,60.667 51.366,63.088 52.201,65.876Z" style="fill:rgb(253,255,255);"/>
        </g>
        <g id="Layer5">
            <path d="M50.521,58.791C51.251,58.241 31.148,56.616 28.62,73.819C28.314,75.898 29.185,77.762 31.043,78.458C31.565,78.653 34.305,77.46 34.709,77.858C35.267,78.409 32.813,80.296 33.087,80.466C45.871,88.398 60.197,79.512 59.057,79.075C59.049,79.075 29.028,74.991 50.521,58.791Z" style="fill:rgb(37,20,37);stroke:rgb(253,255,255);stroke-width:20.68px;"/>
        </g>
        <g id="Layer6">
            <path d="M75.922,82.654C75.922,82.654 63.118,64.117 64.645,62.545C66.856,60.269 84.906,59.216 84.906,59.216C84.906,59.216 96.51,91.601 128.145,98.262C130.803,98.821 107.424,134.252 107.424,134.252C107.424,134.252 89.855,126.483 87.684,102.859C87.684,102.859 87.543,89.688 75.922,82.654Z" style="fill:rgb(128,90,89);stroke:rgb(253,255,255);stroke-width:20.68px;"/>
            <g transform="matrix(1,0,0,1,-0.109518,-0.0623724)">
                <path d="M114.792,59.501C114.792,59.501 133.197,77.781 136.45,82.559C137.979,84.805 108.142,133.642 108.142,133.642" style="fill:none;stroke:rgb(253,255,255);stroke-width:20.68px;"/>
            </g>
        </g>
    </g>
    <g transform="matrix(1.06818,0,0,1.06818,-12.9009,-14.7312)">
        <g id="Layer81" serif:id="Layer8">
            <path d="M34.413,41.971C37.226,39.235 56.068,33.946 81.135,34.637C85.864,34.767 74.271,47.058 74.271,47.058L64.258,51.051C64.258,51.051 31.6,44.707 34.413,41.971Z" style="fill:rgb(128,90,89);"/>
            <path d="M82.924,34.041C70.134,34.717 71.262,48.002 71.262,48.002C71.262,48.002 117.505,47.109 115.987,44.515C109.544,33.506 90.39,33.646 82.924,34.041Z" style="fill:rgb(153,87,62);"/>
            <path d="M77.873,35.411C98.495,34.059 113.829,40.892 114.551,44.359" style="fill:none;stroke:white;stroke-opacity:0.12;stroke-width:1.41px;"/>
            <g id="Layer111" serif:id="Layer11">
                <g opacity="0.6">
                    <g transform="matrix(1.10231,-0.014979,-0.014979,1.00219,-5.81888,-0.461159)">
                        <path d="M73.601,38.519L38.186,44.003" style="fill:none;stroke:rgb(37,20,37);stroke-width:0.82px;"/>
                    </g>
                    <g transform="matrix(0.847824,0.024224,0.0240399,0.996182,8.71552,0.852192)">
                        <path d="M73.601,38.519L38.186,44.003" style="fill:none;stroke:rgb(37,20,37);stroke-width:0.9px;"/>
                    </g>
                    <g transform="matrix(0.551033,0.0699443,0.0695455,0.989172,27.1016,1.67076)">
                        <path d="M73.601,38.519L38.186,44.003" style="fill:none;stroke:rgb(37,20,37);stroke-width:0.98px;"/>
                    </g>
                </g>
                <path d="M80.3,33.839C73.987,36.962 69.99,41.893 71.038,48.1" style="fill:none;stroke:rgb(37,20,37);stroke-width:1.87px;"/>
            </g>
            <path d="M117.398,45.764C103.31,23.673 36.315,38.056 33.032,42.04C31.797,43.538 62.932,51.284 64.666,51.094" style="fill:none;stroke:rgb(37,20,37);stroke-width:1.87px;"/>
        </g>
        <g id="Layer7">
            <path d="M40.445,70.328C56.927,86.481 79.068,83.454 79.068,83.454L60.932,53.242C60.932,53.242 36.32,66.286 40.445,70.328Z" style="fill:rgb(253,250,231);"/>
            <path d="M115.734,45.986L124.912,44.759L132.741,57.355L125.219,69.542L118.799,64.069L115.734,45.986Z" style="fill:rgb(253,250,231);"/>
            <path d="M58.512,55.61C61.468,56.845 64.274,62.352 64.274,62.352C64.274,62.352 85.396,58.029 85.635,58.914C93.993,89.912 126.583,98.726 128.323,97.774C132.469,95.504 136.764,82.713 136.764,82.713L121.237,65.013C121.237,65.013 122.305,50.379 116.841,46.433C100.289,34.482 53.965,53.71 58.512,55.61Z" style="fill:rgb(153,87,62);"/>
            <clipPath id="_clip1">
                <path d="M58.512,55.61C61.468,56.845 64.274,62.352 64.274,62.352C64.274,62.352 85.396,58.029 85.635,58.914C93.993,89.912 126.583,98.726 128.323,97.774C132.469,95.504 136.764,82.713 136.764,82.713L121.237,65.013C121.237,65.013 122.305,50.379 116.841,46.433C100.289,34.482 53.965,53.71 58.512,55.61Z"/>
            </clipPath>
            <g clip-path="url(#_clip1)">
                <g transform="matrix(1,0,0,1,-1.12115,-0.28742)">
                    <path d="M59.403,58.92C58.796,59.402 57.912,59.3 57.43,58.693C56.948,58.086 57.05,57.202 57.657,56.72C62.932,52.535 91.261,39.007 113.05,44.585C114.484,44.952 116.889,45.533 118.986,46.332C120.555,46.93 121.952,47.67 122.786,48.492C123.338,49.036 123.344,49.926 122.8,50.478C122.256,51.03 121.366,51.036 120.814,50.492C120.2,49.887 119.141,49.397 117.986,48.957C115.997,48.199 113.714,47.654 112.354,47.306C91.524,41.974 64.445,54.919 59.403,58.92Z" style="fill:white;fill-opacity:0.12;"/>
                </g>
            </g>
        </g>
        <g id="Layer41" serif:id="Layer4">
            <path d="M153.86,39.148L161.017,36.514L169.456,49.902L156.343,51.248L153.86,39.148Z" style="fill:rgb(253,250,231);"/>
            <path d="M170.92,40.314L170.951,50.16C170.951,50.16 182.519,48.042 182.513,46.401C182.508,44.76 170.92,40.314 170.92,40.314Z" style="fill:rgb(97,79,92);stroke:rgb(253,250,231);stroke-opacity:0;stroke-width:0.94px;"/>
            <path d="M160.222,37.007C161.062,35.961 168.25,36.645 170.23,38.443C173.098,41.047 171.41,49.588 171.41,49.588C171.41,49.588 167.648,50.758 167.309,49.591C165.985,45.03 163.576,44.894 163.009,43.145C161.527,38.567 159.23,38.243 160.222,37.007Z" style="fill:rgb(37,20,37);"/>
            <path d="M123.645,44.366C130.709,38.005 155.231,39.246 155.231,39.246C155.231,39.246 158.115,41.16 157.999,49.902C157.966,52.424 137.155,49.669 133.845,56.16C131.481,60.797 120.519,47.182 123.645,44.366Z" style="fill:rgb(37,20,37);"/>
            <ellipse cx="166.068" cy="40.314" rx="1.241" ry="1.166" style="fill:rgb(253,250,231);stroke:rgb(253,250,231);stroke-opacity:0;stroke-width:0.94px;"/>
            <path d="M182.148,46.293C181.53,46.138 176.175,46.482 173.842,45.472" style="fill:rgb(37,20,37);fill-opacity:0;"/>
            <path d="M182.227,45.978C182.4,46.022 182.506,46.198 182.462,46.371C182.419,46.545 182.243,46.651 182.069,46.607C181.766,46.531 180.302,46.585 178.627,46.527C176.877,46.466 174.909,46.287 173.713,45.77C173.549,45.699 173.473,45.508 173.544,45.344C173.615,45.18 173.806,45.104 173.97,45.175C175.108,45.667 176.984,45.821 178.65,45.879C180.39,45.94 181.912,45.899 182.227,45.978Z" style="fill:rgb(37,20,37);"/>
        </g>
        <g id="Layer21" serif:id="Layer2">
            <path d="M43.129,69.117C42.894,69.578 42.33,69.761 41.87,69.527C41.409,69.293 41.226,68.728 41.46,68.268C46.053,59.244 60.453,50.842 76.024,45.983C91.593,41.124 108.284,39.82 117.358,44.646C117.814,44.889 117.987,45.456 117.745,45.912C117.502,46.368 116.935,46.542 116.478,46.299C107.719,41.64 91.611,43.08 76.582,47.77C61.556,52.459 47.561,60.41 43.129,69.117Z" style="fill:rgb(37,20,37);"/>
            <path d="M153.093,38.445C153.227,38.382 153.904,38.063 154.573,37.74C156.873,36.628 160.953,34.921 165.556,35.694C169.526,36.362 170.891,37.486 171.934,38.63C172.799,39.579 173.365,40.599 175.527,41.355C175.839,41.464 178.777,42.492 180.861,43.477C181.88,43.959 182.703,44.46 183.052,44.838C183.634,45.471 183.803,46.063 183.76,46.566C183.713,47.105 183.418,47.618 182.83,48.045C182.149,48.54 180.963,48.954 179.516,49.288C177.563,49.74 175.103,50.085 172.939,50.485C171,50.844 169.366,50.927 167.203,51.144C166.785,51.186 158.029,51.009 149.483,51.826C143.948,52.355 138.495,53.277 135.603,55.015C133.711,56.152 132.414,58.698 131.053,61.392C129.553,64.359 128.019,67.518 125.874,69.587C125.502,69.945 124.909,69.935 124.55,69.563C124.191,69.191 124.202,68.598 124.574,68.239C127.001,65.898 128.548,62.044 130.265,58.838C131.531,56.477 132.902,54.454 134.639,53.41C136.95,52.022 140.783,51.076 145.047,50.464C154.672,49.082 166.527,49.33 167.016,49.281C169.12,49.07 170.711,48.993 172.598,48.644C175.602,48.088 179.196,47.661 181.099,46.864C181.348,46.76 181.562,46.651 181.729,46.53C181.78,46.493 181.841,46.431 181.876,46.395C181.841,46.334 181.76,46.2 181.674,46.106C181.422,45.833 180.798,45.518 180.061,45.17C178.048,44.218 175.21,43.228 174.909,43.123C172.782,42.379 171.898,41.445 171.085,40.504C170.089,39.35 169.211,38.207 165.245,37.541C160.502,36.743 156.386,38.933 154.565,39.83C153.894,40.16 153.412,40.315 153.203,40.317C130.912,40.512 125.028,45.008 121.566,46.55C119.764,47.353 118.502,47.492 116.443,46.279C115.998,46.017 115.849,45.442 116.111,44.997C116.374,44.552 116.948,44.404 117.393,44.666C119.341,45.813 120.27,45.132 122.456,44.028C126.352,42.062 133.564,38.627 153.093,38.445Z" style="fill:rgb(37,20,37);"/>
            <path d="M41.439,68.457C41.65,67.985 42.203,67.772 42.675,67.982C43.147,68.193 43.36,68.747 43.15,69.219C42.986,69.585 43.119,69.981 43.364,70.406C43.736,71.052 44.381,71.721 45.191,72.404C49.343,75.907 57.656,79.532 59.975,80.402C66.935,83.013 76.572,82.566 82.191,82.194C84.796,82.021 86.605,81.898 87.045,82.008C87.546,82.133 87.851,82.642 87.726,83.143C87.601,83.644 87.092,83.95 86.591,83.824C86.203,83.727 84.612,83.91 82.315,84.062C76.497,84.447 66.523,84.858 59.318,82.155C56.911,81.252 48.293,77.47 43.984,73.835C42.758,72.801 41.871,71.759 41.474,70.802C41.132,69.975 41.115,69.185 41.439,68.457Z" style="fill:rgb(37,20,37);"/>
        </g>
        <g id="Layer51" serif:id="Layer5">
            <path d="M50.521,58.791C51.251,58.241 31.148,56.616 28.62,73.819C28.314,75.898 29.185,77.762 31.043,78.458C31.565,78.653 34.305,77.46 34.709,77.858C35.267,78.409 32.813,80.296 33.087,80.466C45.871,88.398 60.197,79.512 59.057,79.075C59.049,79.075 29.028,74.991 50.521,58.791Z" style="fill:rgb(37,20,37);"/>
            <path d="M43.078,71.137C43.348,70.514 49.941,76.535 64.634,75C67.399,74.711 57.563,80.466 57.563,80.466C57.563,80.466 42.486,72.509 43.078,71.137Z" style="fill:rgb(37,20,37);stroke:rgb(37,20,37);stroke-opacity:0;stroke-width:0.94px;"/>
        </g>
        <g id="Layer61" serif:id="Layer6">
            <path d="M75.922,82.654C75.922,82.654 63.118,64.117 64.645,62.545C66.856,60.269 84.906,59.216 84.906,59.216C84.906,59.216 96.51,91.601 128.145,98.262C130.803,98.821 107.424,134.252 107.424,134.252C107.424,134.252 89.855,126.483 87.684,102.859C87.684,102.859 87.543,89.688 75.922,82.654Z" style="fill:rgb(128,90,89);"/>
            <g transform="matrix(1,0,0,1,-0.109518,-0.0623724)">
                <path d="M114.792,59.501C114.792,59.501 133.197,77.781 136.45,82.559C137.979,84.805 108.142,133.642 108.142,133.642" style="fill:none;stroke:rgb(37,20,37);stroke-width:1.87px;"/>
            </g>
            <path d="M115.063,58.694C113.647,57.641 112.382,58.303 112.382,58.303C112.382,58.303 113.838,59.733 114.258,60.169C114.536,60.458 115.961,59.361 115.063,58.694Z" style="fill:rgb(37,20,37);"/>
            <g id="Layer12">
                <path d="M67.784,68.778C73.015,64.819 79.041,63.199 86.078,63.678" style="fill:none;stroke:rgb(84,56,64);stroke-width:1.5px;"/>
                <g transform="matrix(1,0,0,1,2.45505,6.86426)">
                    <path d="M69.598,67.347C74.407,63.786 79.866,62.447 85.621,61.455" style="fill:none;stroke:rgb(84,56,64);stroke-width:1.5px;"/>
                </g>
                <g transform="matrix(1,0,0,1,5.46059,11.4954)">
                    <path d="M71.668,69.652C76.004,66.069 79.605,63.341 85.897,61.627" style="fill:none;stroke:rgb(84,56,64);stroke-width:1.5px;"/>
                </g>
                <g transform="matrix(1,0,0,1,10.4126,17.1683)">
                    <path d="M72.113,69.112C75.599,65.28 79.819,61.988 84.401,60.499" style="fill:none;stroke:rgb(84,56,64);stroke-width:1.5px;"/>
                </g>
                <g transform="matrix(1,0,0,1,14.3835,22.8473)">
                    <path d="M71.812,68.88C75.706,64.519 79.538,60.978 84.036,58.903" style="fill:none;stroke:rgb(84,56,64);stroke-width:1.5px;"/>
                </g>
                <g transform="matrix(1,0,0,1,16.4975,29.8896)">
                    <path d="M72.051,68.896C77.21,65.597 81.208,61.689 85.562,55.864" style="fill:none;stroke:rgb(84,56,64);stroke-width:1.5px;"/>
                </g>
                <g transform="matrix(1.28085,-0.27423,-0.268468,1.26441,17.7538,46.046)">
                    <path d="M69.456,63.558C74.301,61.795 78.238,61.045 80.587,51.976" style="fill:none;stroke:rgb(84,56,64);stroke-width:1.5px;"/>
                </g>
                <g transform="matrix(1.28085,-0.27423,-0.268468,1.26441,20.5595,52.0532)">
                    <path d="M69.599,64.787C75.166,61.288 80.206,58.905 82.278,50.464" style="fill:none;stroke:rgb(84,56,64);stroke-width:1.5px;"/>
                </g>
                <g transform="matrix(1.28085,-0.27423,-0.268468,1.26441,24.8654,57.0769)">
                    <path d="M70.113,67.264C76.901,64.576 78.487,55.001 83.632,49.126" style="fill:none;stroke:rgb(84,56,64);stroke-width:1.5px;"/>
                </g>
                <g transform="matrix(1.28085,-0.27423,-0.268468,1.26441,29.6514,63.0244)">
                    <path d="M71.271,68.381C70.195,66.634 85.178,49.847 84.039,45.892" style="fill:none;stroke:rgb(84,56,64);stroke-width:1.5px;"/>
                </g>
            </g>
            <path d="M128.876,97.961C106.17,95.862 85.96,68.564 85.52,59.009C85.5,58.577 70.673,60.04 64.592,62.727" style="fill:none;stroke:rgb(37,20,37);stroke-width:1.87px;"/>
            <g transform="matrix(1.00256,0,0,0.997584,-0.241456,0.222419)">
                <path d="M107.869,133.789C106.212,132.698 91.449,126.554 88.526,103.809C88.424,103.87 88.465,89.813 76.574,82.22C76.574,82.22 62.601,62.773 64.788,62.641" style="fill:none;stroke:rgb(38,21,38);stroke-width:1.87px;"/>
            </g>
        </g>
    </g>
</svg>
