<?xml version="1.0" encoding="UTF-8" standalone="no"?>
<!DOCTYPE svg PUBLIC "-//W3C//DTD SVG 1.1//EN" "http://www.w3.org/Graphics/SVG/1.1/DTD/svg11.dtd">
<svg width="100%" height="100%" viewBox="0 0 200 150" version="1.1" xmlns="http://www.w3.org/2000/svg" xmlns:xlink="http://www.w3.org/1999/xlink" xml:space="preserve" xmlns:serif="http://www.serif.com/" style="fill-rule:evenodd;clip-rule:evenodd;stroke-linecap:round;stroke-linejoin:round;stroke-miterlimit:1.5;">
    <g transform="matrix(1.224,0,0,1.224,-29.3703,-23.6039)">
        <g id="Layer8">
            <path d="M34.413,41.971C37.226,39.235 56.068,33.946 81.135,34.637C85.864,34.767 74.271,47.058 74.271,47.058L64.258,51.051C64.258,51.051 31.6,44.707 34.413,41.971Z" style="fill:rgb(128,90,89);"/>
            <path d="M82.924,34.041C70.134,34.717 71.262,48.002 71.262,48.002C71.262,48.002 117.505,47.109 115.987,44.515C109.544,33.506 90.39,33.646 82.924,34.041Z" style="fill:rgb(153,87,62);"/>
            <path d="M77.873,35.411C98.495,34.059 113.829,40.892 114.551,44.359" style="fill:none;stroke:white;stroke-opacity:0.12;stroke-width:1.23px;"/>
            <g id="Layer11">
                <g opacity="0.6">
                    <g transform="matrix(1.10231,-0.014979,-0.014979,1.00219,-5.81888,-0.461159)">
                        <path d="M73.601,38.519L38.186,44.003" style="fill:none;stroke:rgb(37,20,37);stroke-width:0.72px;"/>
                    </g>
                    <g transform="matrix(0.847824,0.024224,0.0240399,0.996182,8.71552,0.852192)">
                        <path d="M73.601,38.519L38.186,44.003" style="fill:none;stroke:rgb(37,20,37);stroke-width:0.79px;"/>
                    </g>
                    <g transform="matrix(0.551033,0.0699443,0.0695455,0.989172,27.1016,1.67076)">
                        <path d="M73.601,38.519L38.186,44.003" style="fill:none;stroke:rgb(37,20,37);stroke-width:0.86px;"/>
                    </g>
                </g>
                <path d="M80.3,33.839C73.987,36.962 69.99,41.893 71.038,48.1" style="fill:none;stroke:rgb(37,20,37);stroke-width:1.63px;"/>
            </g>
            <path d="M117.398,45.764C103.31,23.673 36.315,38.056 33.032,42.04C31.797,43.538 62.932,51.284 64.666,51.094" style="fill:none;stroke:rgb(37,20,37);stroke-width:1.63px;"/>
        </g>
        <g id="Layer7">
            <path d="M40.445,70.328C56.927,86.481 79.068,83.454 79.068,83.454L60.932,53.242C60.932,53.242 36.32,66.286 40.445,70.328Z" style="fill:rgb(253,250,231);"/>
            <path d="M115.734,45.986L124.912,44.759L132.741,57.355L125.219,69.542L118.799,64.069L115.734,45.986Z" style="fill:rgb(253,250,231);"/>
            <path d="M58.512,55.61C61.468,56.845 64.274,62.352 64.274,62.352C64.274,62.352 85.396,58.029 85.635,58.914C93.993,89.912 126.583,98.726 128.323,97.774C132.469,95.504 136.764,82.713 136.764,82.713L121.237,65.013C121.237,65.013 122.305,50.379 116.841,46.433C100.289,34.482 53.965,53.71 58.512,55.61Z" style="fill:rgb(153,87,62);"/>
            <clipPath id="_clip1">
                <path d="M58.512,55.61C61.468,56.845 64.274,62.352 64.274,62.352C64.274,62.352 85.396,58.029 85.635,58.914C93.993,89.912 126.583,98.726 128.323,97.774C132.469,95.504 136.764,82.713 136.764,82.713L121.237,65.013C121.237,65.013 122.305,50.379 116.841,46.433C100.289,34.482 53.965,53.71 58.512,55.61Z"/>
            </clipPath>
            <g clip-path="url(#_clip1)">
                <g transform="matrix(1,0,0,1,-1.12115,-0.28742)">
                    <path d="M59.292,58.78C58.762,59.201 57.99,59.112 57.57,58.582C57.15,58.052 57.238,57.281 57.768,56.86C63.028,52.686 91.277,39.196 113.006,44.758C114.435,45.124 116.833,45.703 118.923,46.499C120.465,47.087 121.84,47.811 122.66,48.619C123.142,49.094 123.148,49.871 122.673,50.352C122.198,50.834 121.422,50.84 120.94,50.365C120.312,49.746 119.231,49.24 118.05,48.789C116.054,48.029 113.763,47.482 112.398,47.132C91.507,41.785 64.349,54.767 59.292,58.78Z" style="fill:white;fill-opacity:0.12;"/>
                </g>
            </g>
        </g>
        <g id="Layer4">
            <path d="M153.86,39.148L161.017,36.514L169.456,49.902L156.343,51.248L153.86,39.148Z" style="fill:rgb(253,250,231);"/>
            <path d="M170.92,40.314L170.951,50.16C170.951,50.16 182.519,48.042 182.513,46.401C182.508,44.76 170.92,40.314 170.92,40.314Z" style="fill:rgb(97,79,92);stroke:rgb(253,250,231);stroke-opacity:0;stroke-width:0.82px;"/>
            <path d="M160.222,37.007C161.062,35.961 168.25,36.645 170.23,38.443C173.098,41.047 171.41,49.588 171.41,49.588C171.41,49.588 167.648,50.758 167.309,49.591C165.985,45.03 163.576,44.894 163.009,43.145C161.527,38.567 159.23,38.243 160.222,37.007Z" style="fill:rgb(37,20,37);"/>
            <path d="M123.645,44.366C130.709,38.005 155.231,39.246 155.231,39.246C155.231,39.246 158.115,41.16 157.999,49.902C157.966,52.424 137.155,49.669 133.845,56.16C131.481,60.797 120.519,47.182 123.645,44.366Z" style="fill:rgb(37,20,37);"/>
            <ellipse cx="166.068" cy="40.314" rx="1.241" ry="1.166" style="fill:rgb(253,250,231);stroke:rgb(253,250,231);stroke-opacity:0;stroke-width:0.82px;"/>
            <path d="M182.148,46.293C181.53,46.138 176.175,46.482 173.842,45.472" style="fill:rgb(37,20,37);fill-opacity:0;"/>
            <path d="M182.217,46.018C182.368,46.056 182.46,46.21 182.422,46.361C182.384,46.513 182.231,46.605 182.079,46.567C181.776,46.491 180.307,46.544 178.629,46.486C176.884,46.425 174.921,46.248 173.729,45.732C173.586,45.67 173.52,45.503 173.582,45.36C173.644,45.217 173.811,45.151 173.954,45.213C175.096,45.707 176.977,45.862 178.648,45.92C180.385,45.981 181.903,45.939 182.217,46.018Z" style="fill:rgb(37,20,37);"/>
        </g>
        <g id="Layer2">
            <path d="M43.023,69.063C42.818,69.465 42.326,69.625 41.924,69.421C41.522,69.216 41.362,68.724 41.566,68.322C46.149,59.318 60.523,50.945 76.06,46.096C91.594,41.249 108.248,39.935 117.302,44.751C117.7,44.963 117.851,45.458 117.639,45.856C117.428,46.254 116.932,46.405 116.534,46.194C107.755,41.524 91.61,42.955 76.547,47.656C61.486,52.356 47.465,60.336 43.023,69.063Z" style="fill:rgb(37,20,37);"/>
            <path d="M153.114,38.564C153.234,38.508 153.935,38.18 154.625,37.847C156.91,36.743 160.963,35.043 165.536,35.812C169.462,36.472 170.814,37.579 171.846,38.71C172.722,39.671 173.298,40.702 175.487,41.468C175.799,41.577 178.73,42.602 180.81,43.585C181.811,44.058 182.622,44.547 182.964,44.919C183.516,45.519 183.682,46.078 183.641,46.555C183.597,47.064 183.314,47.545 182.76,47.948C182.088,48.437 180.916,48.842 179.49,49.172C177.538,49.624 175.079,49.968 172.917,50.368C170.981,50.726 169.35,50.809 167.192,51.026C166.773,51.068 158.017,50.89 149.472,51.707C143.916,52.238 138.445,53.169 135.542,54.913C133.634,56.059 132.319,58.621 130.946,61.338C129.453,64.293 127.927,67.44 125.791,69.501C125.466,69.814 124.949,69.805 124.636,69.48C124.323,69.156 124.332,68.638 124.656,68.325C127.092,65.975 128.647,62.111 130.371,58.895C131.624,56.555 132.979,54.547 134.7,53.512C137.001,52.13 140.819,51.191 145.064,50.582C154.687,49.201 166.539,49.449 167.028,49.4C169.136,49.188 170.73,49.111 172.62,48.761C175.632,48.204 179.237,47.773 181.145,46.974C181.395,46.869 181.611,46.76 181.782,46.639C181.891,46.562 181.997,46.509 182.013,46.413C182.018,46.38 181.994,46.35 181.975,46.312C181.927,46.22 181.854,46.126 181.762,46.026C181.503,45.745 180.867,45.419 180.112,45.062C178.094,44.108 175.25,43.116 174.948,43.01C172.85,42.276 171.977,41.355 171.175,40.426C170.167,39.258 169.28,38.098 165.265,37.423C160.49,36.621 156.346,38.82 154.512,39.723C153.866,40.041 153.403,40.196 153.202,40.197C130.877,40.393 124.984,44.896 121.518,46.441C119.754,47.227 118.519,47.364 116.503,46.176C116.115,45.948 115.985,45.446 116.214,45.058C116.443,44.669 116.944,44.54 117.333,44.769C119.324,45.941 120.275,45.262 122.509,44.135C126.4,42.171 133.604,38.744 153.114,38.564Z" style="fill:rgb(37,20,37);"/>
            <path d="M41.548,68.505C41.732,68.093 42.215,67.908 42.627,68.091C43.039,68.275 43.224,68.758 43.041,69.17C42.863,69.57 42.994,70.002 43.261,70.466C43.638,71.121 44.292,71.802 45.114,72.495C49.276,76.006 57.609,79.642 59.934,80.514C66.909,83.131 76.567,82.685 82.199,82.313C84.784,82.141 86.579,82.014 87.016,82.123C87.453,82.233 87.72,82.677 87.61,83.114C87.501,83.552 87.057,83.818 86.62,83.709C86.229,83.611 84.623,83.79 82.307,83.943C76.501,84.327 66.549,84.741 59.36,82.044C56.958,81.143 48.36,77.371 44.061,73.744C42.853,72.725 41.976,71.7 41.585,70.756C41.255,69.962 41.237,69.205 41.548,68.505Z" style="fill:rgb(37,20,37);"/>
        </g>
        <g id="Layer5">
            <path d="M50.521,58.791C51.251,58.241 31.148,56.616 28.62,73.819C28.314,75.898 29.185,77.762 31.043,78.458C31.565,78.653 34.305,77.46 34.709,77.858C35.267,78.409 32.813,80.296 33.087,80.466C45.871,88.398 60.197,79.512 59.057,79.075C59.049,79.075 29.028,74.991 50.521,58.791Z" style="fill:rgb(37,20,37);stroke:rgb(37,20,37);stroke-opacity:0;stroke-width:0.82px;"/>
            <path d="M43.078,71.137C43.348,70.514 49.941,76.535 64.634,75C67.399,74.711 57.563,80.466 57.563,80.466C57.563,80.466 42.486,72.509 43.078,71.137Z" style="fill:rgb(37,20,37);stroke:rgb(37,20,37);stroke-opacity:0;stroke-width:0.82px;"/>
        </g>
        <g id="Layer6">
            <path d="M75.922,82.654C75.922,82.654 63.118,64.117 64.645,62.545C66.856,60.269 84.906,59.216 84.906,59.216C84.906,59.216 96.51,91.601 128.145,98.262C130.803,98.821 107.424,134.252 107.424,134.252C107.424,134.252 89.855,126.483 87.684,102.859C87.684,102.859 87.543,89.688 75.922,82.654Z" style="fill:rgb(128,90,89);"/>
            <g transform="matrix(1,0,0,1,-0.109518,-0.0623724)">
                <path d="M114.792,59.501C114.792,59.501 133.197,77.781 136.45,82.559C137.979,84.805 108.142,133.642 108.142,133.642" style="fill:none;stroke:rgb(37,20,37);stroke-width:1.63px;"/>
            </g>
            <path d="M115.063,58.694C113.647,57.641 112.382,58.303 112.382,58.303C112.382,58.303 113.838,59.733 114.258,60.169C114.536,60.458 115.961,59.361 115.063,58.694Z" style="fill:rgb(37,20,37);"/>
            <g id="Layer12">
                <path d="M67.784,68.778C73.015,64.819 79.041,63.199 86.078,63.678" style="fill:none;stroke:rgb(84,56,64);stroke-width:1.31px;"/>
                <g transform="matrix(1,0,0,1,2.45505,6.86426)">
                    <path d="M69.598,67.347C74.407,63.786 79.866,62.447 85.621,61.455" style="fill:none;stroke:rgb(84,56,64);stroke-width:1.31px;"/>
                </g>
                <g transform="matrix(1,0,0,1,5.46059,11.4954)">
                    <path d="M71.668,69.652C76.004,66.069 79.605,63.341 85.897,61.627" style="fill:none;stroke:rgb(84,56,64);stroke-width:1.31px;"/>
                </g>
                <g transform="matrix(1,0,0,1,10.4126,17.1683)">
                    <path d="M72.113,69.112C75.599,65.28 79.819,61.988 84.401,60.499" style="fill:none;stroke:rgb(84,56,64);stroke-width:1.31px;"/>
                </g>
                <g transform="matrix(1,0,0,1,14.3835,22.8473)">
                    <path d="M71.812,68.88C75.706,64.519 79.538,60.978 84.036,58.903" style="fill:none;stroke:rgb(84,56,64);stroke-width:1.31px;"/>
                </g>
                <g transform="matrix(1,0,0,1,16.4975,29.8896)">
                    <path d="M72.051,68.896C77.21,65.597 81.208,61.689 85.562,55.864" style="fill:none;stroke:rgb(84,56,64);stroke-width:1.31px;"/>
                </g>
                <g transform="matrix(1.28085,-0.27423,-0.268468,1.26441,17.7538,46.046)">
                    <path d="M69.456,63.558C74.301,61.795 78.238,61.045 80.587,51.976" style="fill:none;stroke:rgb(84,56,64);stroke-width:1.31px;"/>
                </g>
                <g transform="matrix(1.28085,-0.27423,-0.268468,1.26441,20.5595,52.0532)">
                    <path d="M69.599,64.787C75.166,61.288 80.206,58.905 82.278,50.464" style="fill:none;stroke:rgb(84,56,64);stroke-width:1.31px;"/>
                </g>
                <g transform="matrix(1.28085,-0.27423,-0.268468,1.26441,24.8654,57.0769)">
                    <path d="M70.113,67.264C76.901,64.576 78.487,55.001 83.632,49.126" style="fill:none;stroke:rgb(84,56,64);stroke-width:1.31px;"/>
                </g>
                <g transform="matrix(1.28085,-0.27423,-0.268468,1.26441,29.6514,63.0244)">
                    <path d="M71.271,68.381C70.195,66.634 85.178,49.847 84.039,45.892" style="fill:none;stroke:rgb(84,56,64);stroke-width:1.31px;"/>
                </g>
            </g>
            <path d="M128.876,97.961C106.17,95.862 85.96,68.564 85.52,59.009C85.5,58.577 70.673,60.04 64.592,62.727" style="fill:none;stroke:rgb(37,20,37);stroke-width:1.63px;"/>
            <g transform="matrix(1.00256,0,0,0.997584,-0.241456,0.222419)">
                <path d="M107.869,133.789C106.212,132.698 91.449,126.554 88.526,103.809C88.424,103.87 88.465,89.813 76.574,82.22C76.574,82.22 62.601,62.773 64.788,62.641" style="fill:none;stroke:rgb(38,21,38);stroke-width:1.63px;"/>
            </g>
        </g>
    </g>
</svg>
