<?xml version="1.0" encoding="UTF-8" standalone="no"?>
<!DOCTYPE svg PUBLIC "-//W3C//DTD SVG 1.1//EN" "http://www.w3.org/Graphics/SVG/1.1/DTD/svg11.dtd">
<svg width="150px" height="150px" viewBox="0 0 150 150" version="1.1" xmlns="http://www.w3.org/2000/svg" xmlns:xlink="http://www.w3.org/1999/xlink" xml:space="preserve" xmlns:serif="http://www.serif.com/" style="fill-rule:evenodd;clip-rule:evenodd;stroke-linecap:round;stroke-linejoin:round;stroke-miterlimit:1.5;">
    <g transform="matrix(1,0,0,1,-2.09183,1.13809)">
        <path d="M77.092,3.041C48.122,3.697 27.273,26.574 26.148,52.715C24.561,89.626 72.869,146.58 77.092,146.714C80.395,146.819 128.033,92.958 127.051,52.715C126.476,29.13 105.101,2.407 77.092,3.041Z" style="fill:rgb(152,86,62);stroke:rgb(140,25,25);stroke-opacity:0;stroke-width:0.37px;"/>
    </g>
    <g transform="matrix(1.26602,-0.0269708,0.0269708,1.26602,-49.6491,-20.9631)">
        <g id="Layer1">
            <circle cx="96.801" cy="61.158" r="32.671" style="fill:rgb(253,250,231);"/>
        </g>
    </g>
    <g id="Layer2" transform="matrix(1,0,0,1,2.01824,-0.661918)">
        <path d="M53.608,85.918C56.603,69.062 81.593,67.05 77.023,46.63C76.74,45.363 71.536,46.286 66.038,44.423C62.86,43.346 50.504,44.274 46.346,44.009C44.551,43.895 42.089,40.178 47.067,38.896C50.552,37.998 59.892,32.969 61.398,28.592C63.186,23.393 81.026,14.371 91.409,31.235C97.037,40.376 93.148,62.404 92.148,64.936C90.869,68.173 90.97,76.781 90.437,76.839C79.975,77.963 69.445,70.734 69.445,70.734C69.445,70.734 59.675,76.7 56.251,87.526C56.177,87.76 53.524,86.39 53.608,85.918Z" style="fill:rgb(37,20,37);stroke:rgb(168,46,46);stroke-opacity:0;stroke-width:0.37px;"/>
    </g>
    <g id="Layer3">
        <g transform="matrix(0.843798,0,0,0.84248,7.31807,3.29962)">
            <circle cx="74.575" cy="31.515" r="2.291" style="fill:rgb(253,250,231);"/>
        </g>
        <path d="M55.304,39.166C55.481,39.02 56.323,38.691 56.924,38.277C58.011,37.531 58.484,37.475 58.589,37.422" style="fill:rgb(253,250,231);"/>
        <path d="M58.421,37.06C58.616,36.969 58.849,37.05 58.946,37.244C59.044,37.441 58.964,37.681 58.767,37.779C58.666,37.83 58.205,37.881 57.15,38.606C56.561,39.012 55.732,39.33 55.558,39.474C55.388,39.614 55.136,39.59 54.996,39.42C54.856,39.25 54.88,38.998 55.05,38.858C55.23,38.709 56.086,38.369 56.698,37.949C57.736,37.235 58.421,37.06 58.421,37.06Z" style="fill:white;"/>
        <g transform="matrix(1,0,0,1,0.889521,0.000962765)">
            <path d="M69.355,40.834C69.543,40.291 73.242,37.662 74.772,35.318C76.433,32.773 78.733,28.025 83.172,27.92C86.427,27.844 88.931,28.564 89.034,28.853C89.165,29.218 86.17,32.338 84.503,35.539C81.848,40.639 79.846,42.439 77.999,42.622C77.011,42.72 68.803,42.422 69.355,40.834Z" style="fill:rgb(253,250,231);"/>
        </g>
    </g>
</svg>
