<?xml version="1.0" encoding="UTF-8" standalone="no"?>
<!DOCTYPE svg PUBLIC "-//W3C//DTD SVG 1.1//EN" "http://www.w3.org/Graphics/SVG/1.1/DTD/svg11.dtd">
<svg width="100%" height="100%" viewBox="0 0 200 150" version="1.1" xmlns="http://www.w3.org/2000/svg" xmlns:xlink="http://www.w3.org/1999/xlink" xml:space="preserve" xmlns:serif="http://www.serif.com/" style="fill-rule:evenodd;clip-rule:evenodd;stroke-linecap:round;stroke-linejoin:round;stroke-miterlimit:1.5;">
    <g transform="matrix(1.224,0,0,1.224,-28.7487,-20.6202)">
        <g id="Layer8">
            <path d="M34.413,41.971C37.226,39.235 56.068,33.946 81.135,34.637C85.864,34.767 74.271,47.058 74.271,47.058L64.258,51.051C64.258,51.051 31.6,44.707 34.413,41.971Z" style="stroke:rgb(66,66,66);stroke-width:8.17px;"/>
            <path d="M82.924,34.041C70.134,34.717 71.262,48.002 71.262,48.002C71.262,48.002 117.505,47.109 115.987,44.515C109.544,33.506 90.39,33.646 82.924,34.041Z" style="stroke:rgb(66,66,66);stroke-width:8.17px;"/>
            <path d="M77.873,35.411C98.495,34.059 113.829,40.892 114.551,44.359" style="stroke:rgb(66,66,66);stroke-width:8.17px;"/>
            <g id="Layer11">
                <g opacity="0.6">
                    <g transform="matrix(1.10231,-0.014979,-0.014979,1.00219,-5.81888,-0.461159)">
                        <path d="M73.601,38.519L38.186,44.003" style="fill:none;stroke:rgb(66,66,66);stroke-width:7.87px;"/>
                    </g>
                    <g transform="matrix(0.847824,0.024224,0.0240399,0.996182,8.71552,0.852192)">
                        <path d="M73.601,38.519L38.186,44.003" style="fill:none;stroke:rgb(66,66,66);stroke-width:8.61px;"/>
                    </g>
                    <g transform="matrix(0.551033,0.0699443,0.0695455,0.989172,27.1016,1.67076)">
                        <path d="M73.601,38.519L38.186,44.003" style="fill:none;stroke:rgb(66,66,66);stroke-width:9.41px;"/>
                    </g>
                </g>
                <path d="M80.3,33.839C73.987,36.962 69.99,41.893 71.038,48.1" style="stroke:rgb(66,66,66);stroke-width:8.17px;"/>
            </g>
            <path d="M117.398,45.764C103.31,23.673 36.315,38.056 33.032,42.04C31.797,43.538 62.932,51.284 64.666,51.094" style="stroke:rgb(66,66,66);stroke-width:8.17px;"/>
        </g>
        <g id="Layer7">
            <path d="M40.445,70.328C56.927,86.481 79.068,83.454 79.068,83.454L60.932,53.242C60.932,53.242 36.32,66.286 40.445,70.328Z" style="stroke:rgb(66,66,66);stroke-width:8.17px;"/>
            <path d="M115.734,45.986L124.912,44.759L132.741,57.355L125.219,69.542L118.799,64.069L115.734,45.986Z" style="stroke:rgb(66,66,66);stroke-width:8.17px;"/>
            <path d="M58.512,55.61C61.468,56.845 64.274,62.352 64.274,62.352C64.274,62.352 85.396,58.029 85.635,58.914C93.993,89.912 126.583,98.726 128.323,97.774C132.469,95.504 136.764,82.713 136.764,82.713L121.237,65.013C121.237,65.013 122.305,50.379 116.841,46.433C100.289,34.482 53.965,53.71 58.512,55.61Z"/>
            <clipPath id="_clip1">
                <path d="M58.512,55.61C61.468,56.845 64.274,62.352 64.274,62.352C64.274,62.352 85.396,58.029 85.635,58.914C93.993,89.912 126.583,98.726 128.323,97.774C132.469,95.504 136.764,82.713 136.764,82.713L121.237,65.013C121.237,65.013 122.305,50.379 116.841,46.433C100.289,34.482 53.965,53.71 58.512,55.61Z"/>
            </clipPath>
            <g clip-path="url(#_clip1)">
                <g transform="matrix(1,0,0,1,-1.12115,-0.28742)">
                    <path d="M59.292,58.78C58.762,59.201 57.99,59.112 57.57,58.582C57.15,58.052 57.238,57.281 57.768,56.86C63.028,52.686 91.277,39.196 113.006,44.758C114.435,45.124 116.833,45.703 118.923,46.499C120.465,47.087 121.84,47.811 122.66,48.619C123.142,49.094 123.148,49.871 122.673,50.352C122.198,50.834 121.422,50.84 120.94,50.365C120.312,49.746 119.231,49.24 118.05,48.789C116.054,48.029 113.763,47.482 112.398,47.132C91.507,41.785 64.349,54.767 59.292,58.78Z" style="fill:white;fill-opacity:0.12;"/>
                </g>
            </g>
            <path d="M58.512,55.61C61.468,56.845 64.274,62.352 64.274,62.352C64.274,62.352 85.396,58.029 85.635,58.914C93.993,89.912 126.583,98.726 128.323,97.774C132.469,95.504 136.764,82.713 136.764,82.713L121.237,65.013C121.237,65.013 122.305,50.379 116.841,46.433C100.289,34.482 53.965,53.71 58.512,55.61Z" style="fill:none;stroke:rgb(66,66,66);stroke-width:8.17px;"/>
        </g>
        <g id="Layer4">
            <path d="M153.86,39.148L161.017,36.514L169.456,49.902L156.343,51.248L153.86,39.148Z" style="stroke:rgb(66,66,66);stroke-width:8.17px;stroke-linecap:butt;stroke-miterlimit:2;"/>
            <path d="M170.92,40.314L170.951,50.16C170.951,50.16 182.519,48.042 182.513,46.401C182.508,44.76 170.92,40.314 170.92,40.314Z" style="stroke:rgb(66,66,66);stroke-width:8.17px;"/>
            <path d="M160.222,37.007C161.062,35.961 168.25,36.645 170.23,38.443C173.098,41.047 171.41,49.588 171.41,49.588C171.41,49.588 167.648,50.758 167.309,49.591C165.985,45.03 163.576,44.894 163.009,43.145C161.527,38.567 159.23,38.243 160.222,37.007Z" style="stroke:rgb(66,66,66);stroke-width:8.17px;stroke-linecap:butt;stroke-miterlimit:2;"/>
            <path d="M123.645,44.366C130.709,38.005 155.231,39.246 155.231,39.246C155.231,39.246 158.115,41.16 157.999,49.902C157.966,52.424 137.155,49.669 133.845,56.16C131.481,60.797 120.519,47.182 123.645,44.366Z" style="stroke:rgb(66,66,66);stroke-width:8.17px;stroke-linecap:butt;stroke-miterlimit:2;"/>
            <ellipse cx="166.068" cy="40.314" rx="1.241" ry="1.166" style="stroke:rgb(66,66,66);stroke-width:8.17px;"/>
            <path d="M182.148,46.293C181.53,46.138 176.175,46.482 173.842,45.472"/>
            <path d="M181.585,50.339C181.007,50.333 174.587,50.245 172.22,49.222C170.151,48.327 169.197,45.92 170.092,43.851C170.987,41.781 173.394,40.828 175.463,41.723C176.484,42.165 178.312,42.121 179.697,42.143C181.431,42.172 182.804,42.246 183.142,42.33C185.329,42.879 186.659,45.1 186.11,47.287C185.597,49.33 183.625,50.625 181.585,50.339Z" style="fill:rgb(66,66,66);"/>
        </g>
        <g id="Layer2">
            <path d="M42.294,68.693C51.32,50.962 99.085,35.987 116.918,45.472"/>
            <path d="M45.935,70.546C44.912,72.555 42.451,73.356 40.441,72.333C38.432,71.31 37.631,68.849 38.654,66.84C43.518,57.284 58.596,48.123 75.086,42.977C91.561,37.835 109.234,36.758 118.836,41.866C120.827,42.925 121.583,45.4 120.525,47.391C119.466,49.381 116.99,50.138 115,49.079C106.768,44.7 91.644,46.368 77.52,50.776C68.787,53.501 60.419,57.369 54.204,61.867C50.449,64.586 47.491,67.488 45.935,70.546Z" style="fill:rgb(66,66,66);"/>
            <path d="M116.918,45.472C122.635,48.84 120.974,39.663 153.195,39.38C153.939,39.374 159.16,35.568 165.4,36.618C172.651,37.836 170.456,40.574 175.218,42.239C175.656,42.392 181.362,44.385 182.363,45.472C184.679,47.989 177.889,48.617 172.769,49.564C170.855,49.918 169.243,49.998 167.11,50.213C166.412,50.283 142.561,49.742 135.121,54.213C131.088,56.636 129.376,64.908 125.224,68.913"/>
            <path d="M119.224,42.075C119.448,41.982 119.864,41.807 120.16,41.66C121.046,41.219 122.101,40.661 123.469,40.058C127.974,38.07 135.862,35.527 152.361,35.305C154,34.493 160.33,31.623 166.078,32.589C171.208,33.451 172.913,35.03 174.261,36.508C174.831,37.133 175.142,37.885 176.566,38.383C176.896,38.498 180.002,39.588 182.207,40.63C183.701,41.337 184.857,42.151 185.368,42.706L186.181,43.793L186.632,44.764L186.869,45.748L186.897,46.837L186.681,47.91L186.27,48.844L185.648,49.716L184.681,50.592C183.926,51.14 182.775,51.673 181.33,52.077C179.188,52.675 176.141,53.095 173.511,53.581C171.485,53.956 169.778,54.05 167.518,54.277C167.099,54.319 158.336,54.142 149.783,54.96C144.786,55.438 139.836,56.145 137.225,57.714C135.75,58.601 134.924,60.712 133.863,62.812C132.201,66.1 130.437,69.56 128.06,71.853C126.437,73.418 123.849,73.372 122.283,71.749C120.718,70.126 120.765,67.538 122.388,65.973C124.601,63.838 125.924,60.274 127.49,57.351C129.058,54.425 130.865,52.005 133.017,50.711C135.594,49.163 139.846,48.029 144.599,47.347C154.283,45.957 166.209,46.198 166.701,46.148C168.708,45.946 170.226,45.88 172.026,45.548C172.144,45.526 172.263,45.504 172.383,45.483C171.06,44.843 170.191,44.125 169.471,43.401C168.478,42.403 168.212,41.232 164.723,40.646C160.817,39.989 157.456,41.916 155.956,42.655C155.245,43.005 154.698,43.217 154.372,43.305L153.231,43.465C131.827,43.653 126.172,47.945 122.848,49.426C120.032,50.681 118.062,50.887 114.845,48.992C112.902,47.848 112.254,45.342 113.398,43.399C114.543,41.456 117.049,40.808 118.991,41.953C119.059,41.993 119.148,42.038 119.224,42.075Z" style="fill:rgb(66,66,66);"/>
            <path d="M42.294,68.838C40.442,72.996 56.27,80.012 59.647,81.279C69.764,85.074 85.439,82.571 86.818,82.916"/>
            <path d="M46.371,69.113C46.875,69.596 47.998,70.641 48.923,71.268C53.109,74.107 59.19,76.745 61.081,77.454C67.627,79.91 76.698,79.402 81.983,79.052C85.108,78.845 87.281,78.821 87.808,78.953C89.996,79.5 91.328,81.72 90.781,83.907C90.273,85.936 88.325,87.229 86.3,86.968C86.248,86.969 86.182,86.97 86.13,86.972C82.276,87.099 67.864,88.724 58.212,85.104C55.657,84.145 46.527,80.1 41.953,76.242C40.266,74.818 39.112,73.326 38.566,72.008L38.226,70.962L38.063,69.762L38.161,68.459L38.563,67.175C39.48,65.116 41.897,64.189 43.957,65.106C45.564,65.822 46.482,67.452 46.371,69.113Z" style="fill:rgb(66,66,66);"/>
        </g>
        <g id="Layer5">
            <path d="M50.521,58.791C51.251,58.241 31.148,56.616 28.62,73.819C28.314,75.898 29.185,77.762 31.043,78.458C31.565,78.653 34.305,77.46 34.709,77.858C35.267,78.409 32.813,80.296 33.087,80.466C45.871,88.398 60.197,79.512 59.057,79.075C59.049,79.075 29.028,74.991 50.521,58.791Z" style="stroke:rgb(66,66,66);stroke-width:8.17px;"/>
            <path d="M43.078,71.137C43.348,70.514 49.941,76.535 64.634,75C67.399,74.711 57.563,80.466 57.563,80.466C57.563,80.466 42.486,72.509 43.078,71.137Z" style="stroke:rgb(66,66,66);stroke-width:8.17px;"/>
        </g>
        <g id="Layer6">
            <path d="M75.922,82.654C75.922,82.654 63.118,64.117 64.645,62.545C66.856,60.269 84.906,59.216 84.906,59.216C84.906,59.216 96.51,91.601 128.145,98.262C130.803,98.821 107.424,134.252 107.424,134.252C107.424,134.252 89.855,126.483 87.684,102.859C87.684,102.859 87.543,89.688 75.922,82.654Z" style="stroke:rgb(66,66,66);stroke-width:8.17px;"/>
            <g transform="matrix(1,0,0,1,-0.109518,-0.0623724)">
                <path d="M114.792,59.501C114.792,59.501 133.197,77.781 136.45,82.559C137.979,84.805 108.142,133.642 108.142,133.642" style="stroke:rgb(66,66,66);stroke-width:8.17px;"/>
            </g>
            <path d="M115.063,58.694C113.647,57.641 112.382,58.303 112.382,58.303C112.382,58.303 113.838,59.733 114.258,60.169C114.536,60.458 115.961,59.361 115.063,58.694Z" style="stroke:rgb(66,66,66);stroke-width:8.17px;"/>
            <g id="Layer12">
                <path d="M67.784,68.778C73.015,64.819 79.041,63.199 86.078,63.678" style="stroke:rgb(66,66,66);stroke-width:8.17px;"/>
                <g transform="matrix(1,0,0,1,2.45505,6.86426)">
                    <path d="M69.598,67.347C74.407,63.786 79.866,62.447 85.621,61.455" style="stroke:rgb(66,66,66);stroke-width:8.17px;"/>
                </g>
                <g transform="matrix(1,0,0,1,5.46059,11.4954)">
                    <path d="M71.668,69.652C76.004,66.069 79.605,63.341 85.897,61.627" style="stroke:rgb(66,66,66);stroke-width:8.17px;"/>
                </g>
                <g transform="matrix(1,0,0,1,10.4126,17.1683)">
                    <path d="M72.113,69.112C75.599,65.28 79.819,61.988 84.401,60.499" style="stroke:rgb(66,66,66);stroke-width:8.17px;"/>
                </g>
                <g transform="matrix(1,0,0,1,14.3835,22.8473)">
                    <path d="M71.812,68.88C75.706,64.519 79.538,60.978 84.036,58.903" style="stroke:rgb(66,66,66);stroke-width:8.17px;"/>
                </g>
                <g transform="matrix(1,0,0,1,16.4975,29.8896)">
                    <path d="M72.051,68.896C77.21,65.597 81.208,61.689 85.562,55.864" style="stroke:rgb(66,66,66);stroke-width:8.17px;"/>
                </g>
                <g transform="matrix(1.28085,-0.27423,-0.268468,1.26441,17.7538,46.046)">
                    <path d="M69.456,63.558C74.301,61.795 78.238,61.045 80.587,51.976" style="stroke:rgb(66,66,66);stroke-width:8.16px;"/>
                </g>
                <g transform="matrix(1.28085,-0.27423,-0.268468,1.26441,20.5595,52.0532)">
                    <path d="M69.599,64.787C75.166,61.288 80.206,58.905 82.278,50.464" style="stroke:rgb(66,66,66);stroke-width:8.16px;"/>
                </g>
                <g transform="matrix(1.28085,-0.27423,-0.268468,1.26441,24.8654,57.0769)">
                    <path d="M70.113,67.264C76.901,64.576 78.487,55.001 83.632,49.126" style="stroke:rgb(66,66,66);stroke-width:8.16px;"/>
                </g>
                <g transform="matrix(1.28085,-0.27423,-0.268468,1.26441,29.6514,63.0244)">
                    <path d="M71.271,68.381C70.195,66.634 85.178,49.847 84.039,45.892" style="stroke:rgb(66,66,66);stroke-width:8.16px;"/>
                </g>
            </g>
            <path d="M128.876,97.961C106.17,95.862 85.96,68.564 85.52,59.009C85.5,58.577 70.673,60.04 64.592,62.727" style="stroke:rgb(66,66,66);stroke-width:8.17px;"/>
            <g transform="matrix(1.00256,0,0,0.997584,-0.241456,0.222419)">
                <path d="M107.869,133.789C106.212,132.698 91.449,126.554 88.526,103.809C88.424,103.87 88.465,89.813 76.574,82.22C76.574,82.22 62.601,62.773 64.788,62.641" style="stroke:rgb(66,66,66);stroke-width:8.17px;"/>
            </g>
        </g>
    </g>
    <g transform="matrix(1.224,0,0,1.224,-29.3703,-23.6039)">
        <g id="Layer81" serif:id="Layer8">
            <path d="M34.413,41.971C37.226,39.235 56.068,33.946 81.135,34.637C85.864,34.767 74.271,47.058 74.271,47.058L64.258,51.051C64.258,51.051 31.6,44.707 34.413,41.971Z" style="fill:rgb(128,90,89);stroke:white;stroke-width:8.17px;"/>
            <path d="M82.924,34.041C70.134,34.717 71.262,48.002 71.262,48.002C71.262,48.002 117.505,47.109 115.987,44.515C109.544,33.506 90.39,33.646 82.924,34.041Z" style="fill:rgb(153,87,62);stroke:white;stroke-width:8.17px;"/>
            <path d="M77.873,35.411C98.495,34.059 113.829,40.892 114.551,44.359" style="fill:none;stroke:white;stroke-opacity:0.12;stroke-width:8.17px;"/>
            <g id="Layer111" serif:id="Layer11">
                <g opacity="0.6">
                    <g transform="matrix(1.10231,-0.014979,-0.014979,1.00219,-5.81888,-0.461159)">
                        <path d="M73.601,38.519L38.186,44.003" style="fill:none;stroke:white;stroke-width:7.87px;"/>
                    </g>
                    <g transform="matrix(0.847824,0.024224,0.0240399,0.996182,8.71552,0.852192)">
                        <path d="M73.601,38.519L38.186,44.003" style="fill:none;stroke:white;stroke-width:8.61px;"/>
                    </g>
                    <g transform="matrix(0.551033,0.0699443,0.0695455,0.989172,27.1016,1.67076)">
                        <path d="M73.601,38.519L38.186,44.003" style="fill:none;stroke:white;stroke-width:9.41px;"/>
                    </g>
                </g>
                <path d="M80.3,33.839C73.987,36.962 69.99,41.893 71.038,48.1" style="fill:none;stroke:white;stroke-width:8.17px;"/>
            </g>
            <path d="M117.398,45.764C103.31,23.673 36.315,38.056 33.032,42.04C31.797,43.538 62.932,51.284 64.666,51.094" style="fill:none;stroke:white;stroke-width:8.17px;"/>
        </g>
        <g id="Layer71" serif:id="Layer7">
            <path d="M40.445,70.328C56.927,86.481 79.068,83.454 79.068,83.454L60.932,53.242C60.932,53.242 36.32,66.286 40.445,70.328Z" style="fill:rgb(253,250,231);stroke:white;stroke-width:8.17px;"/>
            <path d="M115.734,45.986L124.912,44.759L132.741,57.355L125.219,69.542L118.799,64.069L115.734,45.986Z" style="fill:rgb(253,250,231);stroke:white;stroke-width:8.17px;"/>
            <path d="M58.512,55.61C61.468,56.845 64.274,62.352 64.274,62.352C64.274,62.352 85.396,58.029 85.635,58.914C93.993,89.912 126.583,98.726 128.323,97.774C132.469,95.504 136.764,82.713 136.764,82.713L121.237,65.013C121.237,65.013 122.305,50.379 116.841,46.433C100.289,34.482 53.965,53.71 58.512,55.61Z" style="fill:rgb(153,87,62);"/>
            <clipPath id="_clip2">
                <path d="M58.512,55.61C61.468,56.845 64.274,62.352 64.274,62.352C64.274,62.352 85.396,58.029 85.635,58.914C93.993,89.912 126.583,98.726 128.323,97.774C132.469,95.504 136.764,82.713 136.764,82.713L121.237,65.013C121.237,65.013 122.305,50.379 116.841,46.433C100.289,34.482 53.965,53.71 58.512,55.61Z"/>
            </clipPath>
            <g clip-path="url(#_clip2)">
                <g transform="matrix(1,0,0,1,-1.12115,-0.28742)">
                    <path d="M59.292,58.78C58.762,59.201 57.99,59.112 57.57,58.582C57.15,58.052 57.238,57.281 57.768,56.86C63.028,52.686 91.277,39.196 113.006,44.758C114.435,45.124 116.833,45.703 118.923,46.499C120.465,47.087 121.84,47.811 122.66,48.619C123.142,49.094 123.148,49.871 122.673,50.352C122.198,50.834 121.422,50.84 120.94,50.365C120.312,49.746 119.231,49.24 118.05,48.789C116.054,48.029 113.763,47.482 112.398,47.132C91.507,41.785 64.349,54.767 59.292,58.78Z" style="fill:white;fill-opacity:0.12;"/>
                </g>
            </g>
            <path d="M58.512,55.61C61.468,56.845 64.274,62.352 64.274,62.352C64.274,62.352 85.396,58.029 85.635,58.914C93.993,89.912 126.583,98.726 128.323,97.774C132.469,95.504 136.764,82.713 136.764,82.713L121.237,65.013C121.237,65.013 122.305,50.379 116.841,46.433C100.289,34.482 53.965,53.71 58.512,55.61Z" style="fill:none;stroke:white;stroke-width:8.17px;"/>
        </g>
        <g id="Layer41" serif:id="Layer4">
            <path d="M153.86,39.148L161.017,36.514L169.456,49.902L156.343,51.248L153.86,39.148Z" style="fill:rgb(253,250,231);stroke:white;stroke-width:8.17px;stroke-linecap:butt;stroke-miterlimit:2;"/>
            <path d="M170.92,40.314L170.951,50.16C170.951,50.16 182.519,48.042 182.513,46.401C182.508,44.76 170.92,40.314 170.92,40.314Z" style="fill:rgb(97,79,92);stroke:white;stroke-opacity:0;stroke-width:8.17px;"/>
            <path d="M160.222,37.007C161.062,35.961 168.25,36.645 170.23,38.443C173.098,41.047 171.41,49.588 171.41,49.588C171.41,49.588 167.648,50.758 167.309,49.591C165.985,45.03 163.576,44.894 163.009,43.145C161.527,38.567 159.23,38.243 160.222,37.007Z" style="fill:rgb(37,20,37);stroke:white;stroke-width:8.17px;stroke-linecap:butt;stroke-miterlimit:2;"/>
            <path d="M123.645,44.366C130.709,38.005 155.231,39.246 155.231,39.246C155.231,39.246 158.115,41.16 157.999,49.902C157.966,52.424 137.155,49.669 133.845,56.16C131.481,60.797 120.519,47.182 123.645,44.366Z" style="fill:rgb(37,20,37);stroke:white;stroke-width:8.17px;stroke-linecap:butt;stroke-miterlimit:2;"/>
            <ellipse cx="166.068" cy="40.314" rx="1.241" ry="1.166" style="fill:rgb(253,250,231);stroke:white;stroke-opacity:0;stroke-width:8.17px;"/>
            <path d="M182.148,46.293C181.53,46.138 176.175,46.482 173.842,45.472" style="fill:rgb(37,20,37);fill-opacity:0;"/>
            <path d="M181.585,50.339C181.007,50.333 174.587,50.245 172.22,49.222C170.151,48.327 169.197,45.92 170.092,43.851C170.987,41.781 173.394,40.828 175.463,41.723C176.484,42.165 178.312,42.121 179.697,42.143C181.431,42.172 182.804,42.246 183.142,42.33C185.329,42.879 186.659,45.1 186.11,47.287C185.597,49.33 183.625,50.625 181.585,50.339Z" style="fill:white;"/>
        </g>
        <g id="Layer21" serif:id="Layer2">
            <path d="M45.935,70.546C44.912,72.555 42.451,73.356 40.441,72.333C38.432,71.31 37.631,68.849 38.654,66.84C43.518,57.284 58.596,48.123 75.086,42.977C91.561,37.835 109.234,36.758 118.836,41.866C120.827,42.925 121.583,45.4 120.525,47.391C119.466,49.381 116.99,50.138 115,49.079C106.768,44.7 91.644,46.368 77.52,50.776C68.787,53.501 60.419,57.369 54.204,61.867C50.449,64.586 47.491,67.488 45.935,70.546Z" style="fill:white;"/>
            <path d="M119.224,42.075C119.448,41.982 119.864,41.807 120.16,41.66C121.046,41.219 122.101,40.661 123.469,40.058C127.974,38.07 135.862,35.527 152.361,35.305C154,34.493 160.33,31.623 166.078,32.589C171.208,33.451 172.913,35.03 174.261,36.508C174.831,37.133 175.142,37.885 176.566,38.383C176.896,38.498 180.002,39.588 182.207,40.63C183.701,41.337 184.857,42.151 185.368,42.706L186.181,43.793L186.632,44.764L186.869,45.748L186.897,46.837L186.681,47.91L186.27,48.844L185.648,49.716L184.681,50.592C183.926,51.14 182.775,51.673 181.33,52.077C179.188,52.675 176.141,53.095 173.511,53.581C171.485,53.956 169.778,54.05 167.518,54.277C167.099,54.319 158.336,54.142 149.783,54.96C144.786,55.438 139.836,56.145 137.225,57.714C135.75,58.601 134.924,60.712 133.863,62.812C132.201,66.1 130.437,69.56 128.06,71.853C126.437,73.418 123.849,73.372 122.283,71.749C120.718,70.126 120.765,67.538 122.388,65.973C124.601,63.838 125.924,60.274 127.49,57.351C129.058,54.425 130.865,52.005 133.017,50.711C135.594,49.163 139.846,48.029 144.599,47.347C154.283,45.957 166.209,46.198 166.701,46.148C168.708,45.946 170.226,45.88 172.026,45.548C172.144,45.526 172.263,45.504 172.383,45.483C171.06,44.843 170.191,44.125 169.471,43.401C168.478,42.403 168.212,41.232 164.723,40.646C160.817,39.989 157.456,41.916 155.956,42.655C155.245,43.005 154.698,43.217 154.372,43.305L153.231,43.465C131.827,43.653 126.172,47.945 122.848,49.426C120.032,50.681 118.062,50.887 114.845,48.992C112.902,47.848 112.254,45.342 113.398,43.399C114.543,41.456 117.049,40.808 118.991,41.953C119.059,41.993 119.148,42.038 119.224,42.075Z" style="fill:white;"/>
            <path d="M46.371,69.113C46.875,69.596 47.998,70.641 48.923,71.268C53.109,74.107 59.19,76.745 61.081,77.454C67.627,79.91 76.698,79.402 81.983,79.052C85.108,78.845 87.281,78.821 87.808,78.953C89.996,79.5 91.328,81.72 90.781,83.907C90.273,85.936 88.325,87.229 86.3,86.968C86.248,86.969 86.182,86.97 86.13,86.972C82.276,87.099 67.864,88.724 58.212,85.104C55.657,84.145 46.527,80.1 41.953,76.242C40.266,74.818 39.112,73.326 38.566,72.008L38.226,70.962L38.063,69.762L38.161,68.459L38.563,67.175C39.48,65.116 41.897,64.189 43.957,65.106C45.564,65.822 46.482,67.452 46.371,69.113Z" style="fill:white;"/>
        </g>
        <g id="Layer51" serif:id="Layer5">
            <path d="M50.521,58.791C51.251,58.241 31.148,56.616 28.62,73.819C28.314,75.898 29.185,77.762 31.043,78.458C31.565,78.653 34.305,77.46 34.709,77.858C35.267,78.409 32.813,80.296 33.087,80.466C45.871,88.398 60.197,79.512 59.057,79.075C59.049,79.075 29.028,74.991 50.521,58.791Z" style="fill:rgb(37,20,37);stroke:white;stroke-width:8.17px;"/>
            <path d="M43.078,71.137C43.348,70.514 49.941,76.535 64.634,75C67.399,74.711 57.563,80.466 57.563,80.466C57.563,80.466 42.486,72.509 43.078,71.137Z" style="fill:rgb(37,20,37);stroke:white;stroke-opacity:0;stroke-width:8.17px;"/>
        </g>
        <g id="Layer61" serif:id="Layer6">
            <path d="M75.922,82.654C75.922,82.654 63.118,64.117 64.645,62.545C66.856,60.269 84.906,59.216 84.906,59.216C84.906,59.216 96.51,91.601 128.145,98.262C130.803,98.821 107.424,134.252 107.424,134.252C107.424,134.252 89.855,126.483 87.684,102.859C87.684,102.859 87.543,89.688 75.922,82.654Z" style="fill:rgb(128,90,89);stroke:white;stroke-width:8.17px;"/>
            <g transform="matrix(1,0,0,1,-0.109518,-0.0623724)">
                <path d="M114.792,59.501C114.792,59.501 133.197,77.781 136.45,82.559C137.979,84.805 108.142,133.642 108.142,133.642" style="fill:none;stroke:white;stroke-width:8.17px;"/>
            </g>
            <path d="M115.063,58.694C113.647,57.641 112.382,58.303 112.382,58.303C112.382,58.303 113.838,59.733 114.258,60.169C114.536,60.458 115.961,59.361 115.063,58.694Z" style="fill:rgb(37,20,37);stroke:white;stroke-width:8.17px;"/>
            <g id="Layer121" serif:id="Layer12">
                <path d="M67.784,68.778C73.015,64.819 79.041,63.199 86.078,63.678" style="fill:none;stroke:white;stroke-width:8.17px;"/>
                <g transform="matrix(1,0,0,1,2.45505,6.86426)">
                    <path d="M69.598,67.347C74.407,63.786 79.866,62.447 85.621,61.455" style="fill:none;stroke:white;stroke-width:8.17px;"/>
                </g>
                <g transform="matrix(1,0,0,1,5.46059,11.4954)">
                    <path d="M71.668,69.652C76.004,66.069 79.605,63.341 85.897,61.627" style="fill:none;stroke:white;stroke-width:8.17px;"/>
                </g>
                <g transform="matrix(1,0,0,1,10.4126,17.1683)">
                    <path d="M72.113,69.112C75.599,65.28 79.819,61.988 84.401,60.499" style="fill:none;stroke:white;stroke-width:8.17px;"/>
                </g>
                <g transform="matrix(1,0,0,1,14.3835,22.8473)">
                    <path d="M71.812,68.88C75.706,64.519 79.538,60.978 84.036,58.903" style="fill:none;stroke:white;stroke-width:8.17px;"/>
                </g>
                <g transform="matrix(1,0,0,1,16.4975,29.8896)">
                    <path d="M72.051,68.896C77.21,65.597 81.208,61.689 85.562,55.864" style="fill:none;stroke:white;stroke-width:8.17px;"/>
                </g>
                <g transform="matrix(1.28085,-0.27423,-0.268468,1.26441,17.7538,46.046)">
                    <path d="M69.456,63.558C74.301,61.795 78.238,61.045 80.587,51.976" style="fill:none;stroke:white;stroke-width:8.16px;"/>
                </g>
                <g transform="matrix(1.28085,-0.27423,-0.268468,1.26441,20.5595,52.0532)">
                    <path d="M69.599,64.787C75.166,61.288 80.206,58.905 82.278,50.464" style="fill:none;stroke:white;stroke-width:8.16px;"/>
                </g>
                <g transform="matrix(1.28085,-0.27423,-0.268468,1.26441,24.8654,57.0769)">
                    <path d="M70.113,67.264C76.901,64.576 78.487,55.001 83.632,49.126" style="fill:none;stroke:white;stroke-width:8.16px;"/>
                </g>
                <g transform="matrix(1.28085,-0.27423,-0.268468,1.26441,29.6514,63.0244)">
                    <path d="M71.271,68.381C70.195,66.634 85.178,49.847 84.039,45.892" style="fill:none;stroke:white;stroke-width:8.16px;"/>
                </g>
            </g>
            <path d="M128.876,97.961C106.17,95.862 85.96,68.564 85.52,59.009C85.5,58.577 70.673,60.04 64.592,62.727" style="fill:none;stroke:white;stroke-width:8.17px;"/>
            <g transform="matrix(1.00256,0,0,0.997584,-0.241456,0.222419)">
                <path d="M107.869,133.789C106.212,132.698 91.449,126.554 88.526,103.809C88.424,103.87 88.465,89.813 76.574,82.22C76.574,82.22 62.601,62.773 64.788,62.641" style="fill:none;stroke:white;stroke-width:8.17px;"/>
            </g>
        </g>
    </g>
    <g transform="matrix(1.224,0,0,1.224,-29.3703,-23.6039)">
        <g id="Layer82" serif:id="Layer8">
            <path d="M34.413,41.971C37.226,39.235 56.068,33.946 81.135,34.637C85.864,34.767 74.271,47.058 74.271,47.058L64.258,51.051C64.258,51.051 31.6,44.707 34.413,41.971Z" style="fill:rgb(128,90,89);"/>
            <path d="M82.924,34.041C70.134,34.717 71.262,48.002 71.262,48.002C71.262,48.002 117.505,47.109 115.987,44.515C109.544,33.506 90.39,33.646 82.924,34.041Z" style="fill:rgb(153,87,62);"/>
            <path d="M77.873,35.411C98.495,34.059 113.829,40.892 114.551,44.359" style="fill:none;stroke:white;stroke-opacity:0.12;stroke-width:1.23px;"/>
            <g id="Layer112" serif:id="Layer11">
                <g opacity="0.6">
                    <g transform="matrix(1.10231,-0.014979,-0.014979,1.00219,-5.81888,-0.461159)">
                        <path d="M73.601,38.519L38.186,44.003" style="fill:none;stroke:rgb(37,20,37);stroke-width:0.72px;"/>
                    </g>
                    <g transform="matrix(0.847824,0.024224,0.0240399,0.996182,8.71552,0.852192)">
                        <path d="M73.601,38.519L38.186,44.003" style="fill:none;stroke:rgb(37,20,37);stroke-width:0.79px;"/>
                    </g>
                    <g transform="matrix(0.551033,0.0699443,0.0695455,0.989172,27.1016,1.67076)">
                        <path d="M73.601,38.519L38.186,44.003" style="fill:none;stroke:rgb(37,20,37);stroke-width:0.86px;"/>
                    </g>
                </g>
                <path d="M80.3,33.839C73.987,36.962 69.99,41.893 71.038,48.1" style="fill:none;stroke:rgb(37,20,37);stroke-width:1.63px;"/>
            </g>
            <path d="M117.398,45.764C103.31,23.673 36.315,38.056 33.032,42.04C31.797,43.538 62.932,51.284 64.666,51.094" style="fill:none;stroke:rgb(37,20,37);stroke-width:1.63px;"/>
        </g>
        <g id="Layer72" serif:id="Layer7">
            <path d="M40.445,70.328C56.927,86.481 79.068,83.454 79.068,83.454L60.932,53.242C60.932,53.242 36.32,66.286 40.445,70.328Z" style="fill:rgb(253,250,231);"/>
            <path d="M115.734,45.986L124.912,44.759L132.741,57.355L125.219,69.542L118.799,64.069L115.734,45.986Z" style="fill:rgb(253,250,231);"/>
            <path d="M58.512,55.61C61.468,56.845 64.274,62.352 64.274,62.352C64.274,62.352 85.396,58.029 85.635,58.914C93.993,89.912 126.583,98.726 128.323,97.774C132.469,95.504 136.764,82.713 136.764,82.713L121.237,65.013C121.237,65.013 122.305,50.379 116.841,46.433C100.289,34.482 53.965,53.71 58.512,55.61Z" style="fill:rgb(153,87,62);"/>
            <clipPath id="_clip3">
                <path d="M58.512,55.61C61.468,56.845 64.274,62.352 64.274,62.352C64.274,62.352 85.396,58.029 85.635,58.914C93.993,89.912 126.583,98.726 128.323,97.774C132.469,95.504 136.764,82.713 136.764,82.713L121.237,65.013C121.237,65.013 122.305,50.379 116.841,46.433C100.289,34.482 53.965,53.71 58.512,55.61Z"/>
            </clipPath>
            <g clip-path="url(#_clip3)">
                <g transform="matrix(1,0,0,1,-1.12115,-0.28742)">
                    <path d="M59.292,58.78C58.762,59.201 57.99,59.112 57.57,58.582C57.15,58.052 57.238,57.281 57.768,56.86C63.028,52.686 91.277,39.196 113.006,44.758C114.435,45.124 116.833,45.703 118.923,46.499C120.465,47.087 121.84,47.811 122.66,48.619C123.142,49.094 123.148,49.871 122.673,50.352C122.198,50.834 121.422,50.84 120.94,50.365C120.312,49.746 119.231,49.24 118.05,48.789C116.054,48.029 113.763,47.482 112.398,47.132C91.507,41.785 64.349,54.767 59.292,58.78Z" style="fill:white;fill-opacity:0.12;"/>
                </g>
            </g>
        </g>
        <g id="Layer42" serif:id="Layer4">
            <path d="M153.86,39.148L161.017,36.514L169.456,49.902L156.343,51.248L153.86,39.148Z" style="fill:rgb(253,250,231);"/>
            <path d="M170.92,40.314L170.951,50.16C170.951,50.16 182.519,48.042 182.513,46.401C182.508,44.76 170.92,40.314 170.92,40.314Z" style="fill:rgb(97,79,92);stroke:rgb(253,250,231);stroke-opacity:0;stroke-width:0.82px;"/>
            <path d="M160.222,37.007C161.062,35.961 168.25,36.645 170.23,38.443C173.098,41.047 171.41,49.588 171.41,49.588C171.41,49.588 167.648,50.758 167.309,49.591C165.985,45.03 163.576,44.894 163.009,43.145C161.527,38.567 159.23,38.243 160.222,37.007Z" style="fill:rgb(37,20,37);"/>
            <path d="M123.645,44.366C130.709,38.005 155.231,39.246 155.231,39.246C155.231,39.246 158.115,41.16 157.999,49.902C157.966,52.424 137.155,49.669 133.845,56.16C131.481,60.797 120.519,47.182 123.645,44.366Z" style="fill:rgb(37,20,37);"/>
            <ellipse cx="166.068" cy="40.314" rx="1.241" ry="1.166" style="fill:rgb(253,250,231);stroke:rgb(253,250,231);stroke-opacity:0;stroke-width:0.82px;"/>
            <path d="M182.148,46.293C181.53,46.138 176.175,46.482 173.842,45.472" style="fill:rgb(37,20,37);fill-opacity:0;"/>
            <path d="M182.217,46.018C182.368,46.056 182.46,46.21 182.422,46.361C182.384,46.513 182.231,46.605 182.079,46.567C181.776,46.491 180.307,46.544 178.629,46.486C176.884,46.425 174.921,46.248 173.729,45.732C173.586,45.67 173.52,45.503 173.582,45.36C173.644,45.217 173.811,45.151 173.954,45.213C175.096,45.707 176.977,45.862 178.648,45.92C180.385,45.981 181.903,45.939 182.217,46.018Z" style="fill:rgb(37,20,37);"/>
        </g>
        <g id="Layer22" serif:id="Layer2">
            <path d="M43.023,69.063C42.818,69.465 42.326,69.625 41.924,69.421C41.522,69.216 41.362,68.724 41.566,68.322C46.149,59.318 60.523,50.945 76.06,46.096C91.594,41.249 108.248,39.935 117.302,44.751C117.7,44.963 117.851,45.458 117.639,45.856C117.428,46.254 116.932,46.405 116.534,46.194C107.755,41.524 91.61,42.955 76.547,47.656C61.486,52.356 47.465,60.336 43.023,69.063Z" style="fill:rgb(37,20,37);"/>
            <path d="M153.114,38.564C153.234,38.508 153.935,38.18 154.625,37.847C156.91,36.743 160.963,35.043 165.536,35.812C169.462,36.472 170.814,37.579 171.846,38.71C172.722,39.671 173.298,40.702 175.487,41.468C175.799,41.577 178.73,42.602 180.81,43.585C181.811,44.058 182.622,44.547 182.964,44.919C183.516,45.519 183.682,46.078 183.641,46.555C183.597,47.064 183.314,47.545 182.76,47.948C182.088,48.437 180.916,48.842 179.49,49.172C177.538,49.624 175.079,49.968 172.917,50.368C170.981,50.726 169.35,50.809 167.192,51.026C166.773,51.068 158.017,50.89 149.472,51.707C143.916,52.238 138.445,53.169 135.542,54.913C133.634,56.059 132.319,58.621 130.946,61.338C129.453,64.293 127.927,67.44 125.791,69.501C125.466,69.814 124.949,69.805 124.636,69.48C124.323,69.156 124.332,68.638 124.656,68.325C127.092,65.975 128.647,62.111 130.371,58.895C131.624,56.555 132.979,54.547 134.7,53.512C137.001,52.13 140.819,51.191 145.064,50.582C154.687,49.201 166.539,49.449 167.028,49.4C169.136,49.188 170.73,49.111 172.62,48.761C175.632,48.204 179.237,47.773 181.145,46.974C181.395,46.869 181.611,46.76 181.782,46.639C181.891,46.562 181.997,46.509 182.013,46.413C182.018,46.38 181.994,46.35 181.975,46.312C181.927,46.22 181.854,46.126 181.762,46.026C181.503,45.745 180.867,45.419 180.112,45.062C178.094,44.108 175.25,43.116 174.948,43.01C172.85,42.276 171.977,41.355 171.175,40.426C170.167,39.258 169.28,38.098 165.265,37.423C160.49,36.621 156.346,38.82 154.512,39.723C153.866,40.041 153.403,40.196 153.202,40.197C130.877,40.393 124.984,44.896 121.518,46.441C119.754,47.227 118.519,47.364 116.503,46.176C116.115,45.948 115.985,45.446 116.214,45.058C116.443,44.669 116.944,44.54 117.333,44.769C119.324,45.941 120.275,45.262 122.509,44.135C126.4,42.171 133.604,38.744 153.114,38.564Z" style="fill:rgb(37,20,37);"/>
            <path d="M41.548,68.505C41.732,68.093 42.215,67.908 42.627,68.091C43.039,68.275 43.224,68.758 43.041,69.17C42.863,69.57 42.994,70.002 43.261,70.466C43.638,71.121 44.292,71.802 45.114,72.495C49.276,76.006 57.609,79.642 59.934,80.514C66.909,83.131 76.567,82.685 82.199,82.313C84.784,82.141 86.579,82.014 87.016,82.123C87.453,82.233 87.72,82.677 87.61,83.114C87.501,83.552 87.057,83.818 86.62,83.709C86.229,83.611 84.623,83.79 82.307,83.943C76.501,84.327 66.549,84.741 59.36,82.044C56.958,81.143 48.36,77.371 44.061,73.744C42.853,72.725 41.976,71.7 41.585,70.756C41.255,69.962 41.237,69.205 41.548,68.505Z" style="fill:rgb(37,20,37);"/>
        </g>
        <g id="Layer52" serif:id="Layer5">
            <path d="M50.521,58.791C51.251,58.241 31.148,56.616 28.62,73.819C28.314,75.898 29.185,77.762 31.043,78.458C31.565,78.653 34.305,77.46 34.709,77.858C35.267,78.409 32.813,80.296 33.087,80.466C45.871,88.398 60.197,79.512 59.057,79.075C59.049,79.075 29.028,74.991 50.521,58.791Z" style="fill:rgb(37,20,37);"/>
            <path d="M43.078,71.137C43.348,70.514 49.941,76.535 64.634,75C67.399,74.711 57.563,80.466 57.563,80.466C57.563,80.466 42.486,72.509 43.078,71.137Z" style="fill:rgb(37,20,37);stroke:rgb(37,20,37);stroke-opacity:0;stroke-width:0.82px;"/>
        </g>
        <g id="Layer62" serif:id="Layer6">
            <path d="M75.922,82.654C75.922,82.654 63.118,64.117 64.645,62.545C66.856,60.269 84.906,59.216 84.906,59.216C84.906,59.216 96.51,91.601 128.145,98.262C130.803,98.821 107.424,134.252 107.424,134.252C107.424,134.252 89.855,126.483 87.684,102.859C87.684,102.859 87.543,89.688 75.922,82.654Z" style="fill:rgb(128,90,89);"/>
            <g transform="matrix(1,0,0,1,-0.109518,-0.0623724)">
                <path d="M114.792,59.501C114.792,59.501 133.197,77.781 136.45,82.559C137.979,84.805 108.142,133.642 108.142,133.642" style="fill:none;stroke:rgb(37,20,37);stroke-width:1.63px;"/>
            </g>
            <path d="M115.063,58.694C113.647,57.641 112.382,58.303 112.382,58.303C112.382,58.303 113.838,59.733 114.258,60.169C114.536,60.458 115.961,59.361 115.063,58.694Z" style="fill:rgb(37,20,37);"/>
            <g id="Layer122" serif:id="Layer12">
                <path d="M67.784,68.778C73.015,64.819 79.041,63.199 86.078,63.678" style="fill:none;stroke:rgb(84,56,64);stroke-width:1.31px;"/>
                <g transform="matrix(1,0,0,1,2.45505,6.86426)">
                    <path d="M69.598,67.347C74.407,63.786 79.866,62.447 85.621,61.455" style="fill:none;stroke:rgb(84,56,64);stroke-width:1.31px;"/>
                </g>
                <g transform="matrix(1,0,0,1,5.46059,11.4954)">
                    <path d="M71.668,69.652C76.004,66.069 79.605,63.341 85.897,61.627" style="fill:none;stroke:rgb(84,56,64);stroke-width:1.31px;"/>
                </g>
                <g transform="matrix(1,0,0,1,10.4126,17.1683)">
                    <path d="M72.113,69.112C75.599,65.28 79.819,61.988 84.401,60.499" style="fill:none;stroke:rgb(84,56,64);stroke-width:1.31px;"/>
                </g>
                <g transform="matrix(1,0,0,1,14.3835,22.8473)">
                    <path d="M71.812,68.88C75.706,64.519 79.538,60.978 84.036,58.903" style="fill:none;stroke:rgb(84,56,64);stroke-width:1.31px;"/>
                </g>
                <g transform="matrix(1,0,0,1,16.4975,29.8896)">
                    <path d="M72.051,68.896C77.21,65.597 81.208,61.689 85.562,55.864" style="fill:none;stroke:rgb(84,56,64);stroke-width:1.31px;"/>
                </g>
                <g transform="matrix(1.28085,-0.27423,-0.268468,1.26441,17.7538,46.046)">
                    <path d="M69.456,63.558C74.301,61.795 78.238,61.045 80.587,51.976" style="fill:none;stroke:rgb(84,56,64);stroke-width:1.31px;"/>
                </g>
                <g transform="matrix(1.28085,-0.27423,-0.268468,1.26441,20.5595,52.0532)">
                    <path d="M69.599,64.787C75.166,61.288 80.206,58.905 82.278,50.464" style="fill:none;stroke:rgb(84,56,64);stroke-width:1.31px;"/>
                </g>
                <g transform="matrix(1.28085,-0.27423,-0.268468,1.26441,24.8654,57.0769)">
                    <path d="M70.113,67.264C76.901,64.576 78.487,55.001 83.632,49.126" style="fill:none;stroke:rgb(84,56,64);stroke-width:1.31px;"/>
                </g>
                <g transform="matrix(1.28085,-0.27423,-0.268468,1.26441,29.6514,63.0244)">
                    <path d="M71.271,68.381C70.195,66.634 85.178,49.847 84.039,45.892" style="fill:none;stroke:rgb(84,56,64);stroke-width:1.31px;"/>
                </g>
            </g>
            <path d="M128.876,97.961C106.17,95.862 85.96,68.564 85.52,59.009C85.5,58.577 70.673,60.04 64.592,62.727" style="fill:none;stroke:rgb(37,20,37);stroke-width:1.63px;"/>
            <g transform="matrix(1.00256,0,0,0.997584,-0.241456,0.222419)">
                <path d="M107.869,133.789C106.212,132.698 91.449,126.554 88.526,103.809C88.424,103.87 88.465,89.813 76.574,82.22C76.574,82.22 62.601,62.773 64.788,62.641" style="fill:none;stroke:rgb(38,21,38);stroke-width:1.63px;"/>
            </g>
        </g>
    </g>
</svg>
